PathFileType	4	(X/Y/Z)	Walk2.trc
DataRate	CameraRate	NumFrames	NumMarkers	Units	OrigDataRate	OrigDataStartFrame	OrigNumFrames
200.000000	200.000000	5	61	mm	200.000000	386	591
Frame#	Times		RCAR		RTH2		LTH3		LTB1		LWRU		LBHD		LFA1		RTH3		LUA1		LElbow		LCAR		RToe		RPSI		RASI		RTB2		RLFC		RTB3		RTB1		C7		RMT5		LElbowM		RTB4		LTH4		RTH4		LTH1		LTH2		RWRR		RBHD		LWRR		STRN		RFA1		RMT1		RTH1		RMMAL		RLMAL		RBack		T10		LPSI		LASI		CLAV		RElbow		RUA1		RCAL		LLFC		LMFC		LACR1		LTB4		RElbowM		LTB3		LCAL		RFHD		RACR1		LFHD		LMMAL		RMFC		LTB2		LMT5		LLMAL		RWRU		LToe		LMT1
			X1	Y1	Z1	X2	Y2	Z2	X3	Y3	Z3	X4	Y4	Z4	X5	Y5	Z5	X6	Y6	Z6	X7	Y7	Z7	X8	Y8	Z8	X9	Y9	Z9	X10	Y10	Z10	X11	Y11	Z11	X12	Y12	Z12	X13	Y13	Z13	X14	Y14	Z14	X15	Y15	Z15	X16	Y16	Z16	X17	Y17	Z17	X18	Y18	Z18	X19	Y19	Z19	X20	Y20	Z20	X21	Y21	Z21	X22	Y22	Z22	X23	Y23	Z23	X24	Y24	Z24	X25	Y25	Z25	X26	Y26	Z26	X27	Y27	Z27	X28	Y28	Z28	X29	Y29	Z29	X30	Y30	Z30	X31	Y31	Z31	X32	Y32	Z32	X33	Y33	Z33	X34	Y34	Z34	X35	Y35	Z35	X36	Y36	Z36	X37	Y37	Z37	X38	Y38	Z38	X39	Y39	Z39	X40	Y40	Z40	X41	Y41	Z41	X42	Y42	Z42	X43	Y43	Z43	X44	Y44	Z44	X45	Y45	Z45	X46	Y46	Z46	X47	Y47	Z47	X48	Y48	Z48	X49	Y49	Z49	X50	Y50	Z50	X51	Y51	Z51	X52	Y52	Z52	X53	Y53	Z53	X54	Y54	Z54	X55	Y55	Z55	X56	Y56	Z56	X57	Y57	Z57	X58	Y58	Z58	X59	Y59	Z59	X60	Y60	Z60	X61	Y61	Z61

386	1.93	19.588	803.59	358.59	201.21	716.77	177.59	-52.483	601.47	-138.04	-118.35	357.77	-49.72	216.06	877.02	-280.68	38.477	1618.2	-64.974	139.98	988.19	-301.73	164.16	603.49	194.01	63.747	1279	-258.26	67.757	1124	-297.79	298.24	871.85	-290.12	449.35	46.224	114.37	-102.32	1001.6	74.696	114.41	1016.2	166.15	248.34	281.02	171.82	190.66	495.43	186.43	280.18	198.66	102.36	267.09	383.92	116.19	7.0432	1492.3	11.629	353.71	25.632	170.53	33.16	1101.6	-231.12	274.88	291.32	107.75	-25.839	688.83	-150.35	139.13	694.77	212.97	3.291	776.66	-164.03	40.117	673.93	-127.22	30.558	839.34	302.93	43.742	1627.2	76.77	274.13	917.51	-236.61	176.73	1226.2	9.4485	-48.698	977.73	334.37	399.39	45.886	94.225	106.61	784.14	220.48	285.17	99.372	64.512	254.15	67.219	141.36	-75.197	1408.4	139.93	-106.72	1273.5	13.334	-109.58	1001.2	-2.1026	92.92	1013	-120.74	134.9	1399.9	12.101	-47.146	1126.2	304.45	14.269	1271	271.63	204.58	30.694	87.73	-95.438	503.17	-127.45	-84.005	508.49	1.8739	79.771	1444.1	-153.9	-168.24	283.39	-49.479	-65.959	1110.9	226.91	-222.45	203.61	-52.332	-393.74	89.616	-59.697	219.83	1661	46.984	79.526	1438	175.59	218.23	1657.3	-29.677	-295.16	121.06	-14.936	200.13	511.12	54.095	-181.03	293.87	-123.58	-244.78	23.482	-120.82	-321.92	109.74	-99.252	-35.348	840.58	342.88	-147.89	27.645	-46.236	-200.39	37.928	-34.704
387	1.935	26.415	803.63	359.44	208.05	717.51	177.8	-45.15	600.98	-137.51	-112.34	357.46	-49.806	219.72	876.1	-279.58	44.451	1618.5	-64.173	144.17	987.68	-300.47	170.93	604.23	194.42	69.13	1278.9	-257.22	72.685	1123.8	-296.43	301.85	870.5	-289.14	450.7	43.545	113.5	-95.985	1001.9	75.517	120.92	1016.6	167.11	252.57	280.85	171.94	197.09	495.94	187.04	282.68	198.15	102.09	271.75	383.55	116.11	13.076	1492.5	12.491	354.2	24.981	170.72	38.154	1101.6	-229.67	278.41	290.87	107.55	-18.893	688.51	-149.65	146.01	695.55	213.36	9.8317	776.5	-163.15	47.123	673.83	-126.49	37.207	839.3	303.71	49.781	1627.5	77.575	278.08	916.29	-235.6	183.03	1226.6	10.285	-41.791	977.81	335.38	400.28	44.341	93.737	113.56	784.98	220.94	286.27	98.81	64.191	255.35	67.144	141.33	-69.059	1408.5	140.91	-100.68	1273.7	14.199	-103.34	1001.2	-1.3333	99.386	1013.1	-119.31	140.93	1400.2	12.898	-40.228	1126.2	305.45	20.818	1271.1	272.53	204.91	31.177	88.016	-87.906	502.76	-127.15	-76.535	507.96	2.1539	85.641	1444.3	-153.15	-163.3	283.85	-49.61	-59.268	1110.9	227.98	-218.67	204.9	-52.507	-391.54	94.181	-59.603	225.86	1661.3	47.71	85.638	1438.2	176.39	224.22	1657.6	-28.953	-292.39	123.36	-15.192	205.43	511.41	54.647	-176.05	294.64	-123.65	-244.62	24.111	-120.57	-319.61	112.62	-99.408	-28.541	840.62	343.86	-148.1	27.536	-46.235	-200.15	37.774	-34.589
388	1.94	33.381	803.75	360.25	214.85	718.31	178.02	-37.529	600.47	-137.02	-105.97	357.16	-49.993	223.24	875.2	-278.44	50.432	1618.8	-63.374	148.25	987.22	-299.17	177.65	605.03	194.92	74.495	1278.9	-256.16	77.56	1123.7	-295.02	305.3	869.13	-288.16	451.91	41.181	112.79	-89.658	1002.3	76.339	127.44	1017.1	168.09	256.61	280.7	172.1	203.43	496.46	187.66	285.04	197.7	101.88	276.28	383.21	116.1	19.11	1492.8	13.349	354.61	24.497	170.96	43.107	1101.8	-228.16	281.82	290.47	107.42	-11.743	688.2	-148.97	152.86	696.42	213.81	16.493	776.37	-162.27	54.344	673.79	-125.77	43.964	839.33	304.45	55.827	1627.9	78.377	281.89	915.06	-234.58	189.33	1227.1	11.117	-34.768	977.95	336.38	401.05	43.053	93.366	120.48	785.92	221.44	287.25	98.336	63.907	256.4	67.132	141.31	-62.905	1408.7	141.91	-94.641	1273.9	15.069	-97.098	1001.4	-0.56786	105.84	1013.3	-117.89	146.96	1400.6	13.692	-33.224	1126.3	306.45	27.431	1271.3	273.41	205.18	31.621	88.288	-80.016	502.33	-126.91	-68.696	507.38	2.3654	91.518	1444.5	-152.41	-158.02	284.36	-49.817	-52.52	1111	229.06	-214.58	206.29	-52.732	-389	99.032	-59.448	231.9	1661.6	48.435	91.768	1438.5	177.17	230.22	1657.9	-28.229	-289.31	125.79	-15.461	210.71	511.76	55.228	-170.78	295.49	-123.78	-244.39	24.854	-120.3	-317.03	115.68	-99.547	-21.595	840.73	344.82	-148.35	27.421	-46.229	-199.87	37.624	-34.469
389	1.945	40.49	803.94	361.02	221.58	719.15	178.25	-29.613	599.95	-136.59	-99.223	356.87	-50.29	226.6	874.33	-277.28	56.417	1619.2	-62.58	152.23	986.81	-297.84	184.3	605.9	195.48	79.844	1278.9	-255.09	82.381	1123.6	-293.57	308.59	867.75	-287.16	452.98	39.127	112.22	-83.338	1002.7	77.166	133.95	1017.7	169.06	260.46	280.58	172.3	209.64	496.97	188.29	287.27	197.31	101.72	280.67	382.9	116.16	25.138	1493.2	14.199	354.93	24.157	171.21	48.015	1101.9	-226.6	285.08	290.11	107.35	-4.3852	687.89	-148.33	159.66	697.35	214.3	23.275	776.27	-161.4	61.784	673.82	-125.08	50.832	839.46	305.15	61.877	1628.3	79.173	285.58	913.83	-233.54	195.62	1227.6	11.942	-27.631	978.18	337.38	401.71	42.003	93.088	127.36	786.92	221.96	288.09	97.94	63.652	257.31	67.171	141.3	-56.738	1409	142.91	-88.605	1274.3	15.944	-90.878	1001.5	0.20009	112.28	1013.6	-116.47	152.99	1401.1	14.478	-26.138	1126.5	307.45	34.107	1271.6	274.3	205.41	32.02	88.54	-71.762	501.88	-126.73	-60.471	506.73	2.5013	97.396	1444.8	-151.65	-152.38	284.91	-50.105	-45.719	1111.2	230.15	-210.16	207.76	-53.01	-386.11	104.16	-59.228	237.95	1662	49.159	97.917	1438.9	177.94	236.22	1658.3	-27.507	-285.88	128.34	-15.743	215.96	512.17	55.825	-165.2	296.42	-123.98	-244.07	25.729	-120.02	-314.17	118.91	-99.669	-14.509	840.92	345.76	-148.63	27.3	-46.22	-199.55	37.487	-34.345
390	1.95	47.744	804.22	361.74	228.22	720	178.5	-21.402	599.41	-136.21	-92.101	356.58	-50.702	229.82	873.48	-276.09	62.405	1619.7	-61.792	156.1	986.45	-296.47	190.84	606.79	196.11	85.181	1279.1	-254	87.148	1123.7	-292.08	311.73	866.36	-286.16	453.93	37.37	111.77	-77.025	1003.2	78.004	140.46	1018.4	170.03	264.11	280.47	172.51	215.69	497.46	188.92	289.36	196.96	101.59	284.92	382.61	116.28	31.155	1493.7	15.04	355.19	23.939	171.47	52.878	1102.2	-224.98	288.2	289.78	107.32	3.1816	687.59	-147.72	166.37	698.31	214.83	30.18	776.2	-160.53	69.443	673.89	-124.41	57.813	839.67	305.79	67.926	1628.8	79.961	289.14	912.6	-232.49	201.89	1228.2	12.755	-20.38	978.47	338.38	402.28	41.168	92.884	134.18	787.97	222.52	288.82	97.609	63.42	258.08	67.247	141.29	-50.558	1409.3	143.92	-82.571	1274.7	16.827	-84.679	1001.7	0.97702	118.69	1014	-115.06	159	1401.7	15.253	-18.972	1126.7	308.46	40.842	1271.9	275.17	205.61	32.369	88.766	-63.148	501.41	-126.61	-51.844	506.01	2.5563	103.27	1445.2	-150.89	-146.38	285.51	-50.477	-38.868	1111.5	231.25	-205.38	209.32	-53.346	-382.82	109.57	-58.944	243.99	1662.5	49.881	104.08	1439.4	178.7	242.23	1658.8	-26.789	-282.09	130.99	-16.038	221.18	512.63	56.427	-159.32	297.44	-124.24	-243.66	26.752	-119.73	-310.99	122.31	-99.774	-7.279	841.18	346.69	-148.92	27.175	-46.212	-199.18	37.377	-34.219
